<svg id="visual" viewBox="0 0 900 400" width="900" height="400" xmlns="http://www.w3.org/2000/svg" xmlns:xlink="http://www.w3.org/1999/xlink" version="1.1"><rect x="0" y="0" width="900" height="400" fill="#247BA0"></rect><defs><linearGradient id="grad1_0" x1="55.6%" y1="0%" x2="100%" y2="100%"><stop offset="5%" stop-color="#cbd4c2" stop-opacity="1"></stop><stop offset="95%" stop-color="#cbd4c2" stop-opacity="1"></stop></linearGradient></defs><defs><linearGradient id="grad1_1" x1="55.6%" y1="0%" x2="100%" y2="100%"><stop offset="5%" stop-color="#cbd4c2" stop-opacity="1"></stop><stop offset="95%" stop-color="#b4c8b5" stop-opacity="1"></stop></linearGradient></defs><defs><linearGradient id="grad1_2" x1="55.6%" y1="0%" x2="100%" y2="100%"><stop offset="5%" stop-color="#9bbdac" stop-opacity="1"></stop><stop offset="95%" stop-color="#b4c8b5" stop-opacity="1"></stop></linearGradient></defs><defs><linearGradient id="grad1_3" x1="55.6%" y1="0%" x2="100%" y2="100%"><stop offset="5%" stop-color="#9bbdac" stop-opacity="1"></stop><stop offset="95%" stop-color="#80b1a6" stop-opacity="1"></stop></linearGradient></defs><defs><linearGradient id="grad1_4" x1="55.6%" y1="0%" x2="100%" y2="100%"><stop offset="5%" stop-color="#66a5a3" stop-opacity="1"></stop><stop offset="95%" stop-color="#80b1a6" stop-opacity="1"></stop></linearGradient></defs><defs><linearGradient id="grad1_5" x1="55.6%" y1="0%" x2="100%" y2="100%"><stop offset="5%" stop-color="#66a5a3" stop-opacity="1"></stop><stop offset="95%" stop-color="#4b98a2" stop-opacity="1"></stop></linearGradient></defs><defs><linearGradient id="grad1_6" x1="55.6%" y1="0%" x2="100%" y2="100%"><stop offset="5%" stop-color="#348aa2" stop-opacity="1"></stop><stop offset="95%" stop-color="#4b98a2" stop-opacity="1"></stop></linearGradient></defs><defs><linearGradient id="grad1_7" x1="55.6%" y1="0%" x2="100%" y2="100%"><stop offset="5%" stop-color="#348aa2" stop-opacity="1"></stop><stop offset="95%" stop-color="#247ba0" stop-opacity="1"></stop></linearGradient></defs><defs><linearGradient id="grad2_0" x1="0%" y1="0%" x2="44.4%" y2="100%"><stop offset="5%" stop-color="#cbd4c2" stop-opacity="1"></stop><stop offset="95%" stop-color="#cbd4c2" stop-opacity="1"></stop></linearGradient></defs><defs><linearGradient id="grad2_1" x1="0%" y1="0%" x2="44.4%" y2="100%"><stop offset="5%" stop-color="#b4c8b5" stop-opacity="1"></stop><stop offset="95%" stop-color="#cbd4c2" stop-opacity="1"></stop></linearGradient></defs><defs><linearGradient id="grad2_2" x1="0%" y1="0%" x2="44.4%" y2="100%"><stop offset="5%" stop-color="#b4c8b5" stop-opacity="1"></stop><stop offset="95%" stop-color="#9bbdac" stop-opacity="1"></stop></linearGradient></defs><defs><linearGradient id="grad2_3" x1="0%" y1="0%" x2="44.4%" y2="100%"><stop offset="5%" stop-color="#80b1a6" stop-opacity="1"></stop><stop offset="95%" stop-color="#9bbdac" stop-opacity="1"></stop></linearGradient></defs><defs><linearGradient id="grad2_4" x1="0%" y1="0%" x2="44.4%" y2="100%"><stop offset="5%" stop-color="#80b1a6" stop-opacity="1"></stop><stop offset="95%" stop-color="#66a5a3" stop-opacity="1"></stop></linearGradient></defs><defs><linearGradient id="grad2_5" x1="0%" y1="0%" x2="44.4%" y2="100%"><stop offset="5%" stop-color="#4b98a2" stop-opacity="1"></stop><stop offset="95%" stop-color="#66a5a3" stop-opacity="1"></stop></linearGradient></defs><defs><linearGradient id="grad2_6" x1="0%" y1="0%" x2="44.4%" y2="100%"><stop offset="5%" stop-color="#4b98a2" stop-opacity="1"></stop><stop offset="95%" stop-color="#348aa2" stop-opacity="1"></stop></linearGradient></defs><defs><linearGradient id="grad2_7" x1="0%" y1="0%" x2="44.4%" y2="100%"><stop offset="5%" stop-color="#247ba0" stop-opacity="1"></stop><stop offset="95%" stop-color="#348aa2" stop-opacity="1"></stop></linearGradient></defs><g transform="translate(900, 0)"><path d="M0 340C-38.4 315.1 -76.7 290.1 -112.1 270.7C-147.5 251.3 -180 237.4 -216.4 216.4C-252.7 195.4 -292.9 167.4 -314.1 130.1C-335.4 92.9 -337.7 46.4 -340 0L0 0Z" fill="#2a83a1"></path><path d="M0 297.5C-33.6 275.7 -67.1 253.9 -98.1 236.9C-129.1 219.9 -157.5 207.7 -189.3 189.3C-221.1 171 -256.3 146.4 -274.9 113.8C-293.4 81.3 -295.5 40.6 -297.5 0L0 0Z" fill="#3f91a2"></path><path d="M0 255C-28.8 236.3 -57.5 217.6 -84.1 203C-110.7 188.5 -135 178 -162.3 162.3C-189.5 146.5 -219.7 125.5 -235.6 97.6C-251.5 69.7 -253.3 34.8 -255 0L0 0Z" fill="#589ea3"></path><path d="M0 212.5C-24 196.9 -47.9 181.3 -70.1 169.2C-92.2 157 -112.5 148.3 -135.2 135.2C-157.9 122.1 -183 104.6 -196.3 81.3C-209.6 58 -211.1 29 -212.5 0L0 0Z" fill="#73aba4"></path><path d="M0 170C-19.2 157.5 -38.4 145.1 -56.1 135.3C-73.8 125.6 -90 118.7 -108.2 108.2C-126.4 97.7 -146.4 83.7 -157.1 65.1C-167.7 46.4 -168.8 23.2 -170 0L0 0Z" fill="#8eb7a8"></path><path d="M0 127.5C-14.4 118.1 -28.8 108.8 -42 101.5C-55.3 94.2 -67.5 89 -81.1 81.1C-94.8 73.3 -109.8 62.8 -117.8 48.8C-125.8 34.8 -126.6 17.4 -127.5 0L0 0Z" fill="#a7c3b0"></path><path d="M0 85C-9.6 78.8 -19.2 72.5 -28 67.7C-36.9 62.8 -45 59.3 -54.1 54.1C-63.2 48.8 -73.2 41.8 -78.5 32.5C-83.8 23.2 -84.4 11.6 -85 0L0 0Z" fill="#c0cebb"></path><path d="M0 42.5C-4.8 39.4 -9.6 36.3 -14 33.8C-18.4 31.4 -22.5 29.7 -27 27C-31.6 24.4 -36.6 20.9 -39.3 16.3C-41.9 11.6 -42.2 5.8 -42.5 0L0 0Z" fill="#cbd4c2"></path></g><g transform="translate(0, 400)"><path d="M0 -340C48.1 -331.8 96.2 -323.6 121.3 -292.9C146.4 -262.2 148.4 -209 182.4 -182.4C216.5 -155.9 282.5 -156.1 314.1 -130.1C345.7 -104.2 342.9 -52.1 340 0L0 0Z" fill="#2a83a1"></path><path d="M0 -297.5C42.1 -290.3 84.2 -283.1 106.1 -256.3C128.1 -229.4 129.8 -182.8 159.6 -159.6C189.4 -136.4 247.2 -136.6 274.9 -113.8C302.5 -91.1 300 -45.6 297.5 0L0 0Z" fill="#3f91a2"></path><path d="M0 -255C36.1 -248.8 72.2 -242.7 91 -219.7C109.8 -196.6 111.3 -156.7 136.8 -136.8C162.4 -116.9 211.9 -117.1 235.6 -97.6C259.3 -78.1 257.1 -39.1 255 0L0 0Z" fill="#589ea3"></path><path d="M0 -212.5C30.1 -207.4 60.2 -202.2 75.8 -183C91.5 -163.9 92.7 -130.6 114 -114C135.3 -97.4 176.6 -97.5 196.3 -81.3C216.1 -65.1 214.3 -32.5 212.5 0L0 0Z" fill="#73aba4"></path><path d="M0 -170C24.1 -165.9 48.1 -161.8 60.7 -146.4C73.2 -131.1 74.2 -104.5 91.2 -91.2C108.2 -78 141.3 -78 157.1 -65.1C172.9 -52.1 171.4 -26 170 0L0 0Z" fill="#8eb7a8"></path><path d="M0 -127.5C18 -124.4 36.1 -121.3 45.5 -109.8C54.9 -98.3 55.6 -78.4 68.4 -68.4C81.2 -58.5 105.9 -58.5 117.8 -48.8C129.6 -39.1 128.6 -19.5 127.5 0L0 0Z" fill="#a7c3b0"></path><path d="M0 -85C12 -82.9 24.1 -80.9 30.3 -73.2C36.6 -65.5 37.1 -52.2 45.6 -45.6C54.1 -39 70.6 -39 78.5 -32.5C86.4 -26 85.7 -13 85 0L0 0Z" fill="#c0cebb"></path><path d="M0 -42.5C6 -41.5 12 -40.4 15.2 -36.6C18.3 -32.8 18.5 -26.1 22.8 -22.8C27.1 -19.5 35.3 -19.5 39.3 -16.3C43.2 -13 42.9 -6.5 42.5 0L0 0Z" fill="#cbd4c2"></path></g></svg>